HIERARCHY
ROOT root
{
	OFFSET 0.000000 0.000000 0.000000
	CHANNELS 6 Xposition Yposition Zposition Zrotation Yrotation Xrotation
	JOINT lhip
	{
		OFFSET 0.058581 -0.082280 -0.017664
		CHANNELS 3 Zrotation Yrotation Xrotation
		JOINT lknee
		{
			OFFSET 0.043451 -0.386469 0.008037
			CHANNELS 3 Zrotation Yrotation Xrotation
			JOINT lankle
			{
				OFFSET -0.014790 -0.426874 -0.037428
				CHANNELS 3 Zrotation Yrotation Xrotation
				JOINT ltoe
				{
					OFFSET 0.041054 -0.060286 0.122042
					CHANNELS 3 Zrotation Yrotation Xrotation
					End Site
					{
						OFFSET 0.000000 0.000000 0.000000
					}
				}
			}
		}
	}
	JOINT rhip
	{
		OFFSET -0.060310 -0.090513 -0.013543
		CHANNELS 3 Zrotation Yrotation Xrotation
		JOINT rknee
		{
			OFFSET -0.043257 -0.383688 -0.004843
			CHANNELS 3 Zrotation Yrotation Xrotation
			JOINT rankle
			{
				OFFSET 0.019056 -0.420046 -0.034562
				CHANNELS 3 Zrotation Yrotation Xrotation
				JOINT rtoe
				{
					OFFSET -0.034840 -0.062106 0.130323
					CHANNELS 3 Zrotation Yrotation Xrotation
					End Site
					{
						OFFSET 0.000000 0.000000 0.000000
					}
				}
			}
		}
	}
	JOINT lowerback
	{
		OFFSET 0.004439 0.124404 -0.038385
		CHANNELS 3 Zrotation Yrotation Xrotation
		JOINT upperback
		{
			OFFSET 0.004488 0.137956 0.026820
			CHANNELS 3 Zrotation Yrotation Xrotation
			JOINT chest
			{
				OFFSET -0.002265 0.056032 0.002855
				CHANNELS 3 Zrotation Yrotation Xrotation
				JOINT lowerneck
				{
					OFFSET -0.013390 0.211636 -0.033468
					CHANNELS 3 Zrotation Yrotation Xrotation
					JOINT upperneck
					{
						OFFSET 0.010113 0.088937 0.050410
						CHANNELS 3 Zrotation Yrotation Xrotation
						End Site
						{
							OFFSET 0.000000 0.000000 0.000000
						}
					}
				}
				JOINT lclavicle
				{
					OFFSET 0.071702 0.114000 -0.018898
					CHANNELS 3 Zrotation Yrotation Xrotation
					JOINT lshoulder
					{
						OFFSET 0.122921 0.045205 -0.019046
						CHANNELS 3 Zrotation Yrotation Xrotation
						JOINT lelbow
						{
							OFFSET 0.255332 -0.015649 -0.022946
							CHANNELS 3 Zrotation Yrotation Xrotation
							JOINT lwrist
							{
								OFFSET 0.265709 0.012698 -0.007375
								CHANNELS 3 Zrotation Yrotation Xrotation
								End Site
								{
									OFFSET 0.000000 0.000000 0.000000
								}
							}
						}
					}
				}
				JOINT rclavicle
				{
					OFFSET -0.082954 0.112472 -0.023707
					CHANNELS 3 Zrotation Yrotation Xrotation
					JOINT rshoulder
					{
						OFFSET -0.113228 0.046853 -0.008472
						CHANNELS 3 Zrotation Yrotation Xrotation
						JOINT relbow
						{
							OFFSET -0.260127 -0.014369 -0.031269
							CHANNELS 3 Zrotation Yrotation Xrotation
							JOINT rwrist
							{
								OFFSET -0.269108 0.006794 -0.006027
								CHANNELS 3 Zrotation Yrotation Xrotation
								End Site
								{
									OFFSET 0.000000 0.000000 0.000000
								}
							}
						}
					}
				}
			}
		}
	}
}
MOTION
Frames: 14
Frame Time: 0.033333
-0.822907 0.444667 0.866531 80.880077 0.546298 83.007819 15.358650 5.951946 -36.777026 -10.212302 9.580884 59.024596 -0.348988 5.532260 -23.341024 0.000000 -0.000000 0.000000 -22.689077 -13.941330 6.287413 2.797013 4.527039 41.677236 8.902435 -4.934243 -34.257071 0.000000 -0.000000 0.000000 -1.579537 8.342002 17.436202 1.539920 -6.356757 -5.542775 1.476813 -2.487468 -2.720763 -0.096709 2.211479 0.194221 3.723874 7.001653 7.024818 -16.411196 -24.638470 -8.290445 -15.127199 -39.042070 -8.460683 39.058953 -51.820608 -16.835290 -4.645616 -7.223766 10.662216 13.620440 11.462078 -4.384173 -1.067739 -0.661467 -15.646022 -15.421337 15.339234 -14.216355 32.961377 -4.655200 -3.193924 
-0.822894 0.443638 0.866445 81.249339 0.476627 82.944778 15.211938 5.724061 -36.803688 -10.233180 9.393841 58.995411 -0.409530 5.584594 -23.309338 0.000000 -0.000000 0.000000 -22.639348 -13.935452 6.615672 2.643808 4.337771 41.517648 8.935998 -5.175942 -34.360455 0.000000 -0.000000 0.000000 -1.534646 8.310277 17.534612 1.480151 -6.380288 -5.532442 1.405836 -2.458791 -2.783305 -0.036645 2.463896 0.099769 3.756458 7.017339 7.265360 -16.223289 -24.593970 -8.498664 -15.385420 -38.953304 -8.054526 39.283034 -51.945352 -16.176163 -4.393455 -7.604920 11.383425 13.579007 11.412879 -4.423819 -0.997828 -0.856530 -15.652033 -15.382262 15.361622 -14.000785 32.901614 -4.409621 -3.243911 
-0.822603 0.442369 0.866217 81.574617 0.340950 82.944979 15.089224 5.497499 -36.878652 -10.347755 9.301760 58.910142 -0.552341 5.616395 -23.193724 0.000000 -0.000000 0.000000 -22.599551 -13.904300 6.789674 2.485685 4.175733 41.507330 8.939948 -5.380896 -34.473694 0.000000 -0.000000 0.000000 -1.585032 8.420385 17.435456 1.450729 -6.469010 -5.450198 1.382903 -2.478607 -2.867485 0.043415 2.398066 0.452266 3.749447 6.932288 7.125033 -16.170739 -24.692176 -8.348951 -15.205544 -38.755455 -8.095377 39.555877 -52.075399 -16.078328 -4.319172 -7.856947 11.898420 13.502363 11.380425 -4.292801 -0.905219 -1.129865 -15.685689 -15.383185 15.654561 -13.732757 32.741813 -4.339354 -3.409850 
-0.822362 0.441038 0.866168 81.968219 0.249815 82.843093 14.977381 5.310316 -36.837937 -10.492579 9.127469 58.841397 -0.461574 5.618797 -23.097442 0.000000 -0.000000 0.000000 -22.566083 -13.903069 7.110505 2.487479 4.111223 41.498098 8.967678 -5.509824 -34.647178 0.000000 -0.000000 0.000000 -1.571739 8.500080 17.406451 1.443810 -6.577436 -5.258895 1.290697 -2.454588 -2.861914 -0.050306 2.409934 0.320103 3.813575 6.934638 7.137362 -15.877988 -24.549830 -8.468595 -15.224280 -38.884621 -8.040481 39.448149 -52.219192 -16.059152 -3.876737 -7.976238 11.586097 13.321404 11.206955 -4.458136 -0.630190 -1.247576 -15.425206 -15.587054 15.729475 -13.869493 32.982688 -4.393467 -3.508569 
-0.822201 0.439808 0.866139 82.206101 0.174231 82.889024 14.865459 5.288093 -36.917315 -10.493963 8.993671 58.814797 -0.476844 5.552632 -23.036742 0.000000 -0.000000 0.000000 -22.392805 -13.836776 7.151890 2.273192 4.113699 41.558133 8.936357 -5.753924 -34.724383 0.000000 -0.000000 0.000000 -1.606889 8.397532 17.262966 1.357440 -6.526957 -5.296963 1.269278 -2.368928 -2.751465 0.054218 2.582222 0.313705 3.872623 6.948614 6.981108 -15.946385 -24.609977 -8.601084 -15.059763 -38.883766 -7.994722 38.958133 -52.181921 -15.159409 -4.024133 -7.607532 13.087841 13.391458 11.211215 -4.470942 -0.834902 -1.360916 -15.625186 -15.347934 15.618066 -13.775688 32.847791 -4.331001 -3.411196 
-0.821651 0.438463 0.866023 82.347001 0.037995 82.779564 14.794074 5.189482 -36.731042 -10.393163 8.991014 58.779935 -0.536698 5.381524 -23.093584 0.000000 -0.000000 0.000000 -22.431325 -13.775327 7.435672 2.134930 4.049546 41.443664 8.918677 -5.872846 -34.698299 0.000000 -0.000000 0.000000 -1.608894 8.381662 17.324295 1.267345 -6.403696 -5.244800 1.242627 -2.367433 -2.823215 0.065141 2.320306 0.256606 3.756218 6.769394 7.163164 -15.816133 -24.458122 -8.643403 -15.045078 -38.845692 -8.173339 39.109133 -52.425358 -15.090257 -5.252300 -8.199657 12.359429 13.174433 11.108690 -4.533741 -0.597042 -1.406525 -15.544910 -15.488773 15.647570 -13.677766 33.131646 -4.267899 -3.420953 
-0.820919 0.437089 0.865278 82.579850 -0.040077 82.769795 14.701551 5.083284 -36.790126 -10.504603 8.785005 58.786863 -0.497664 5.491031 -23.037330 0.000000 -0.000000 0.000000 -22.375538 -13.799698 7.597231 2.144574 4.130086 41.440438 8.970682 -6.126566 -34.825418 0.000000 -0.000000 0.000000 -1.595556 8.495802 17.046909 1.257136 -6.416073 -5.098497 1.158536 -2.387208 -2.658441 0.056323 2.300539 0.139205 3.837836 6.646550 7.060593 -15.657457 -24.544091 -8.697710 -14.914000 -38.806686 -8.148749 38.664037 -52.395488 -13.965250 -3.899261 -7.684603 14.468743 12.985397 11.123523 -4.594448 -0.443377 -1.602285 -15.523524 -15.436209 15.776517 -13.639649 32.944881 -4.257838 -3.475829 
-0.820796 0.435800 0.865072 82.846094 -0.137645 82.701353 14.726559 4.827992 -36.688151 -10.584217 8.862554 58.576787 -0.552391 5.451274 -22.890831 0.000000 -0.000000 0.000000 -22.350251 -13.759682 7.845794 2.107658 4.087227 41.384765 8.964264 -6.387766 -34.849640 0.000000 -0.000000 0.000000 -1.670458 8.680090 16.855587 1.300376 -6.497202 -4.666345 1.181892 -2.442667 -2.885869 0.015448 2.375765 0.246404 3.789581 6.677390 6.983260 -15.757892 -24.949021 -8.441462 -14.420450 -38.406267 -8.207143 38.950379 -52.385619 -14.453395 -3.227108 -7.802038 15.191460 12.979422 11.354820 -4.289167 -0.558509 -2.004661 -15.476099 -15.419602 15.785978 -13.832833 32.959706 -4.255389 -3.842726 
-0.820418 0.434331 0.864752 83.070161 -0.131294 82.682937 14.683117 4.925121 -36.747897 -10.667332 8.555983 58.619009 -0.503416 5.374538 -22.829452 0.000000 -0.000000 0.000000 -22.218601 -13.887948 8.013990 2.102393 4.206120 41.381034 9.072458 -6.697799 -34.891971 0.000000 -0.000000 0.000000 -1.520260 8.676093 17.085885 1.211755 -6.436319 -5.205709 1.144706 -2.465168 -2.668092 -0.002197 2.243808 0.123673 3.839283 6.790360 7.181184 -15.644382 -24.566461 -8.683775 -14.549377 -38.633824 -8.276136 38.116522 -52.692868 -13.163048 -3.924410 -7.493063 15.454235 12.783716 11.081901 -4.623252 -0.357300 -1.816473 -15.500952 -15.309153 15.802472 -13.605971 32.798467 -4.335797 -3.639679 
-0.820466 0.433215 0.864697 83.347033 -0.231458 82.516514 14.509096 4.764384 -36.658791 -10.758590 8.321055 58.633805 -0.622940 5.462971 -22.829143 0.000000 -0.000000 0.000000 -22.191834 -13.761333 8.274438 1.899928 3.936783 41.428759 9.076941 -6.657614 -35.036112 0.000000 -0.000000 0.000000 -1.511875 8.733716 17.343287 1.176695 -6.415234 -5.307787 1.126612 -2.381800 -2.818570 0.146315 2.158033 0.225531 3.818983 6.582760 7.127667 -15.529077 -24.570850 -8.864295 -14.764283 -38.646459 -8.026633 37.759467 -52.715290 -12.643906 -4.497147 -7.849378 15.258510 12.660539 11.041282 -4.654813 -0.169855 -2.024215 -15.323602 -15.502576 15.788439 -13.647874 32.904040 -4.260268 -3.648721 
-0.820708 0.431969 0.864345 83.688099 -0.255224 82.425191 14.443782 4.653937 -36.736092 -10.834658 8.124450 58.692244 -0.699059 5.437901 -22.707877 0.000000 -0.000000 0.000000 -22.069525 -13.852275 8.540570 1.795379 3.900933 41.421526 9.131128 -6.983381 -35.130590 0.000000 -0.000000 0.000000 -1.604873 8.785226 17.316576 1.270600 -6.617364 -5.252112 1.141644 -2.329775 -2.720546 0.189514 2.192220 0.206192 3.933706 6.496394 7.112035 -15.486609 -24.742751 -8.659693 -14.203389 -38.379560 -8.281039 37.512393 -52.826787 -12.052897 -4.080973 -7.541508 16.701116 12.659097 11.182716 -4.566105 -0.141352 -2.268328 -15.322701 -15.498184 16.055401 -13.674873 32.656609 -4.298461 -3.888891 
-0.820310 0.430793 0.864187 83.924008 -0.373848 82.208709 14.282331 4.503170 -36.523476 -10.834519 7.954299 58.665456 -0.715723 5.435999 -22.704175 0.000000 -0.000000 0.000000 -22.075259 -13.794981 8.904820 1.634635 3.814187 41.354165 9.131480 -7.136550 -35.225710 0.000000 -0.000000 0.000000 -1.632789 8.853809 17.430794 1.211660 -6.630227 -5.027743 1.152435 -2.357197 -2.861564 0.168554 2.151753 0.295959 3.899061 6.405586 6.989254 -15.196821 -24.733883 -8.775651 -14.309569 -38.207812 -8.224782 37.616829 -53.038216 -11.913749 -4.081283 -7.423334 17.117857 12.450806 11.286868 -4.677842 0.134329 -2.354880 -15.398244 -15.641048 15.968127 -13.692801 32.822180 -4.378822 -3.540759 
-0.820043 0.429908 0.863895 84.306945 -0.429577 82.182173 14.206239 4.206925 -36.597915 -10.914107 7.907175 58.636854 -0.751950 5.494233 -22.645732 0.000000 -0.000000 0.000000 -22.021889 -13.808777 9.126495 1.552676 3.604314 41.370787 9.165153 -7.294655 -35.374474 0.000000 -0.000000 0.000000 -1.655356 8.948737 17.295513 1.252475 -6.756512 -4.878400 1.108745 -2.415235 -2.819469 0.149094 2.308024 0.267448 3.944352 6.305471 6.964317 -15.211526 -24.808167 -8.721096 -14.081300 -38.058842 -8.099073 37.955250 -53.225989 -12.384586 -3.533175 -7.443841 16.991530 12.539804 11.252099 -4.761203 -0.004286 -2.499741 -15.212865 -15.632597 16.068342 -13.683396 32.648672 -4.341066 -3.561596 
-0.819739 0.428941 0.863634 84.564756 -0.508494 82.119626 14.141346 4.104062 -36.585866 -11.032073 7.803678 58.659960 -0.717997 5.510674 -22.662149 0.000000 -0.000000 0.000000 -22.039504 -13.866853 9.364912 1.423631 3.506951 41.333252 9.197381 -7.316977 -35.435955 0.000000 -0.000000 0.000000 -1.725087 8.918861 17.403454 1.221091 -6.735202 -5.111101 1.092424 -2.375630 -2.711203 0.214746 2.427190 0.337533 3.966404 6.347745 6.989659 -14.947444 -24.573694 -8.800490 -14.108211 -38.091693 -7.957161 37.839208 -53.454544 -11.794745 -3.924593 -7.480143 16.795739 12.385643 11.028567 -4.882265 0.153754 -2.369282 -15.235415 -15.501986 16.116130 -13.353552 32.953484 -4.251509 -3.797329 
